<svg width="80" height="80" viewBox="0 0 80 80" fill="none" xmlns="http://www.w3.org/2000/svg">
<path d="M40 80C62.0914 80 80 62.0914 80 40C80 17.9086 62.0914 0 40 0C17.9086 0 0 17.9086 0 40C0 62.0914 17.9086 80 40 80Z" fill="white"/>
<path d="M56.3862 40.9722C56.12 40.5506 55.8316 40.1513 55.5209 39.7519C55.0772 39.1306 54.5447 38.5316 53.8347 37.8216C53.1912 37.1781 52.5256 36.6012 51.8156 36.0909C48.5763 33.6059 44.6269 32.2969 40.5 32.2969C36.3287 32.2969 32.3794 33.6503 29.1622 36.0909C27.8309 37.0894 26.6328 38.2875 25.59 39.6409C25.2572 40.0625 24.9466 40.5062 24.6359 40.9722C22.7056 43.9675 21.6406 47.5397 21.6406 51.1562V52.2656V58.9219V60.0312C21.6406 61.8728 23.1272 63.3594 24.9688 63.3594H56.0312C57.8728 63.3594 59.3594 61.8728 59.3594 60.0312V58.9219V51.1562C59.3594 47.4953 58.2944 43.9231 56.3862 40.9722Z" fill="black"/>
<path d="M50.4844 18.9844C50.4844 24.4869 46.0025 28.9688 40.5 28.9688C34.9975 28.9688 30.5156 24.4869 30.5156 18.9844C30.5156 13.4597 34.9975 9 40.5 9C46.0025 9 50.4844 13.4597 50.4844 18.9844Z" fill="black"/>
<path d="M71.5625 18.9844C71.5625 24.4869 67.0806 28.9688 61.5781 28.9688C56.0756 28.9688 51.5938 24.4869 51.5938 18.9844C51.5938 13.4597 56.0756 9 61.5781 9C67.0806 9 71.5625 13.4597 71.5625 18.9844Z" fill="black"/>
<path d="M76 46.7188V55.5938C76 57.4353 74.5135 58.9219 72.6719 58.9219H62.6875V51.1562C62.6875 46.9184 61.445 42.6584 59.2041 39.1972C58.8713 38.6869 58.5163 38.1987 58.2278 37.8216C57.6953 37.0672 57.0741 36.3572 56.1866 35.4697C55.6763 34.9594 55.166 34.4934 54.6556 34.0719C56.7413 32.9181 59.1153 32.2969 61.5781 32.2969C65.4166 32.2969 69.0331 33.7834 71.7622 36.4903C74.5135 39.2637 76 42.8803 76 46.7188Z" fill="black"/>
<path d="M26.3666 34.0719C25.1241 35.0925 23.9703 36.2906 22.9719 37.5775C22.5947 38.0656 22.2175 38.5759 21.8403 39.175C19.5328 42.7472 18.3125 46.8962 18.3125 51.1562V58.9219H8.32812C6.48656 58.9219 5 57.4353 5 55.5938V46.7188C5 38.7756 11.4788 32.2969 19.4219 32.2969C21.8847 32.2969 24.2588 32.9181 26.3666 34.0719Z" fill="black"/>
<path d="M29.4062 18.9844C29.4062 24.4869 24.9244 28.9688 19.4219 28.9688C13.9194 28.9688 9.4375 24.4869 9.4375 18.9844C9.4375 13.4597 13.9194 9 19.4219 9C24.9244 9 29.4062 13.4597 29.4062 18.9844Z" fill="black"/>
</svg>
