<svg width="80" height="80" viewBox="0 0 80 80" fill="none" xmlns="http://www.w3.org/2000/svg">
<path d="M40 80C62.0914 80 80 62.0914 80 40C80 17.9086 62.0914 0 40 0C17.9086 0 0 17.9086 0 40C0 62.0914 17.9086 80 40 80Z" fill="white"/>
<path d="M70.779 64.5607L57.446 51.3471C61.265 46.6327 63.543 40.6567 63.543 34.1495C63.543 19.0103 51.081 6.65991 35.805 6.65991C20.529 6.65991 8 19.0103 8 34.2159C8 49.4215 20.462 61.7055 35.805 61.7055C42.371 61.7055 48.401 59.4479 53.158 55.6631L66.424 68.8103C67.027 69.4079 67.831 69.6735 68.568 69.6735C69.305 69.6735 70.109 69.4079 70.712 68.8103C71.918 67.6815 71.918 65.7559 70.779 64.5607ZM14.164 34.2159C14.164 22.3967 23.879 12.7687 35.805 12.7687C47.731 12.7687 57.446 22.3967 57.446 34.2159C57.446 46.0351 47.731 55.6631 35.805 55.6631C23.879 55.6631 14.164 46.0351 14.164 34.2159Z" fill="black"/>
<path d="M40.294 35.6767C40.294 37.4695 38.82 38.9303 37.011 38.9303H34.666C32.857 38.9303 31.383 37.4695 31.383 35.6767V35.5439C28.301 35.2119 25.42 34.6143 22.874 33.7511V41.5863C22.874 43.2463 24.214 44.5743 25.889 44.5743H45.788C47.463 44.5743 48.803 43.2463 48.803 41.5863V33.7511C46.324 34.6143 43.443 35.2119 40.361 35.5439V35.6767H40.294Z" fill="black"/>
<path d="M45.721 25.3183H41.835V23.6583C41.835 21.5999 40.16 19.9399 38.083 19.9399H33.527C31.45 19.9399 29.775 21.6663 29.775 23.6583V25.3183H25.889C24.214 25.3183 22.874 26.6463 22.874 28.3063V31.0951C25.353 32.0247 28.234 32.6887 31.383 33.0207C31.517 31.3607 32.924 30.0327 34.666 30.0327H37.011C38.753 30.0327 40.16 31.3607 40.294 33.0207C43.443 32.6887 46.324 32.0247 48.803 31.0951V28.3063C48.736 26.6463 47.396 25.3183 45.721 25.3183ZM38.82 25.3183H32.723V23.6583C32.723 23.2599 33.058 22.9279 33.46 22.9279H38.016C38.418 22.9279 38.753 23.2599 38.753 23.6583V25.3183H38.82Z" fill="black"/>
<path d="M37.011 36.4735C37.48 36.4735 37.815 36.1415 37.815 35.6767V33.3527C37.815 32.8879 37.48 32.5559 37.011 32.5559H34.666C34.197 32.5559 33.862 32.8879 33.862 33.3527V35.6767C33.862 36.1415 34.197 36.4735 34.666 36.4735H37.011Z" fill="black"/>
</svg>
