<svg width="80" height="80" viewBox="0 0 80 80" fill="none" xmlns="http://www.w3.org/2000/svg">
<path d="M40 80C62.0914 80 80 62.0914 80 40C80 17.9086 62.0914 0 40 0C17.9086 0 0 17.9086 0 40C0 62.0914 17.9086 80 40 80Z" fill="white"/>
<path d="M69.3239 21.0779L15.6636 21.072C14.6404 21.072 13.811 20.2503 13.811 19.236C13.811 18.2231 14.6404 17.4014 15.6636 17.4014L62.3203 17.3941C63.5452 17.3941 64.5381 16.4106 64.5381 15.1971C64.5381 13.9836 63.5452 13 62.3203 13H14.1747C11.322 13 9 15.3003 9 18.1265V64.3563C9 65.8195 10.1976 67.0074 11.6761 67.0074H17.3638C20.8324 72.4071 26.9223 76 33.8468 76C40.7713 76 46.8612 72.4078 50.3298 67.0082H69.3239C70.8024 67.0082 72 65.8203 72 64.357V23.7297C72 22.265 70.8024 21.0779 69.3239 21.0779ZM33.8468 72.3382C25.1178 72.3382 18.0166 65.304 18.0166 56.6571C18.0166 56.006 18.058 55.3498 18.1386 54.7061C19.1173 46.878 25.8711 40.9744 33.8468 40.9744C35.8901 40.9744 37.8764 41.3538 39.7526 42.1008C45.7812 44.5029 49.677 50.2168 49.677 56.6571C49.677 65.3032 42.5758 72.3382 33.8468 72.3382ZM67.9068 38.992H53.4109C50.6705 38.992 48.4491 36.792 48.4491 34.0771C48.4491 31.3616 50.6705 29.1609 53.4109 29.1609H67.9068V38.992ZM51.7742 34.0771C51.7742 35.2401 52.7256 36.1841 53.901 36.1841C55.0764 36.1841 56.0279 35.2401 56.0279 34.0771C56.0279 32.9127 55.0764 31.9702 53.901 31.9702C52.7256 31.9702 51.7742 32.9127 51.7742 34.0771ZM41.0189 56.5113C41.631 56.5113 42.1278 56.0192 42.1278 55.4128C42.1278 54.8064 41.631 54.3143 41.0189 54.3143H39.2677V49.8403C39.2677 49.2339 38.7709 48.7418 38.1588 48.7418C37.5467 48.7418 37.0499 49.2339 37.0499 49.8403V54.3143H33.6465L30.4078 49.2522C30.1446 48.8392 29.6383 48.6495 29.1622 48.785C28.6883 48.9212 28.3623 49.3511 28.3623 49.8396V54.3135H26.6118C25.9997 54.3135 25.5029 54.8057 25.5029 55.4121C25.5029 56.0185 25.9997 56.5106 26.6118 56.5106H28.3623V56.9984H26.6118C25.9997 56.9984 25.5029 57.4905 25.5029 58.0969C25.5029 58.7033 25.9997 59.1954 26.6118 59.1954H28.3623V63.8158C28.3623 64.4222 28.8591 64.9144 29.4712 64.9144C30.0833 64.9144 30.5801 64.4222 30.5801 63.8158V59.1954H34.1432L37.2214 64.0062C37.4846 64.4193 37.9925 64.6082 38.4671 64.4735C38.9409 64.3373 39.2669 63.9074 39.2669 63.4189V59.1954H41.0182C41.6303 59.1954 42.1271 58.7033 42.1271 58.0969C42.1271 57.4905 41.6303 56.9984 41.0182 56.9984H39.2669V56.5106H41.0189V56.5113ZM30.5808 53.6259L31.0214 54.3143H30.5808V53.6259ZM30.5808 56.9991V56.5113H32.4267L32.7394 56.9991H30.5808ZM37.0499 59.6341L36.7698 59.1961H37.0499V59.6341ZM37.0499 56.9991H35.3645L35.0525 56.5113H37.0499V56.9991Z" fill="black"/>
</svg>
