<svg width="80" height="80" viewBox="0 0 80 80" fill="none" xmlns="http://www.w3.org/2000/svg">
<path d="M40 80C62.0914 80 80 62.0914 80 40C80 17.9086 62.0914 0 40 0C17.9086 0 0 17.9086 0 40C0 62.0914 17.9086 80 40 80Z" fill="white"/>
<path d="M57.632 4.00068C54.6563 3.9888 51.7233 4.70942 49.0905 6.09923C46.4577 7.48903 44.2058 9.5055 42.5325 11.9715C40.8592 14.4375 39.8159 17.2775 39.494 20.2421C39.1721 23.2068 39.5816 26.2052 40.6866 28.9741L31.3896 34.4683C29.1889 32.0246 26.3026 30.3044 23.1092 29.5336C19.9158 28.7627 16.5645 28.9771 13.4949 30.1486C10.4252 31.3202 7.78054 33.3941 5.90775 36.0984C4.03496 38.8028 3.0215 42.0112 3.00029 45.3029C2.98505 47.8473 3.57113 50.3592 4.71059 52.633C5.85005 54.9068 7.5105 56.878 9.55609 58.3852L9.95864 58.6925C12.6986 60.6116 15.9607 61.6408 19.3035 61.6408C22.6464 61.6408 25.9085 60.6116 28.6484 58.6925C28.7914 58.595 28.926 58.4858 29.051 58.366C30.286 57.4738 31.3783 56.3985 32.2905 55.177L40.2649 60.0373C39.7135 61.4652 39.4276 62.9822 39.4214 64.5133C39.4214 67.825 40.7341 71.001 43.0708 73.3427C45.4075 75.6844 48.5767 77 51.8813 77C55.1858 77 58.355 75.6844 60.6917 73.3427C63.0284 71.001 64.3411 67.825 64.3411 64.5133C64.3485 61.9262 63.5526 59.4009 62.0638 57.2875C60.575 55.174 58.467 53.577 56.032 52.7179C53.597 51.8587 50.9556 51.78 48.474 52.4925C45.9923 53.2051 43.7933 54.6736 42.1818 56.6947L34.2074 51.8152C35.2228 49.5559 35.7027 47.0917 35.6096 44.6155C35.5165 42.1393 34.8529 39.7183 33.6707 37.5419L42.5268 32.2975C43.4921 33.7336 44.6535 35.0268 45.9772 36.1396C48.2149 38.0508 50.8811 39.3906 53.7479 40.0445C56.6146 40.6985 59.5968 40.647 62.4394 39.8947C65.2821 39.1423 67.9007 37.7114 70.0714 35.7241C72.2422 33.7369 73.9006 31.2525 74.9048 28.4833C75.909 25.714 76.2293 22.7423 75.8381 19.822C75.447 16.9018 74.3562 14.1198 72.6588 11.714C70.9614 9.30815 68.7081 7.34994 66.0912 6.00671C63.4744 4.66349 60.572 3.97521 57.632 4.00068ZM26.674 55.3499C26.5927 55.4246 26.5026 55.4891 26.4057 55.542C24.309 56.9733 21.8308 57.7388 19.294 57.7388C16.7571 57.7388 14.2789 56.9733 12.1822 55.542L11.818 55.2923C11.4136 55.0123 11.0293 54.7042 10.6679 54.3702C10.7613 52.7474 11.3114 51.1843 12.2545 49.8618C13.1976 48.5393 14.4951 47.5115 15.9969 46.8974C15.5181 46.4473 15.1379 45.9024 14.8805 45.2972C14.6231 44.692 14.4941 44.0397 14.5017 43.3819C14.5017 42.1082 15.0066 40.8866 15.9053 39.986C16.804 39.0853 18.023 38.5793 19.294 38.5793C20.5649 38.5793 21.7839 39.0853 22.6826 39.986C23.5813 40.8866 24.0862 42.1082 24.0862 43.3819C24.0889 44.0426 23.9539 44.6965 23.6898 45.3019C23.4257 45.9073 23.0384 46.4507 22.5527 46.8974C23.6162 47.3427 24.5806 47.9957 25.3897 48.8184C26.8818 50.2891 27.7824 52.2582 27.92 54.351C27.5263 54.7102 27.1101 55.0438 26.674 55.3499ZM47.089 70.2764C47.089 69.0027 47.5939 67.7811 48.4926 66.8804C49.3914 65.9798 50.6103 65.4738 51.8813 65.4738C51.3126 65.4738 50.7567 65.3048 50.2838 64.9882C49.811 64.6715 49.4424 64.2215 49.2248 63.695C49.0072 63.1684 48.9502 62.589 49.0612 62.0301C49.1721 61.4711 49.446 60.9577 49.8481 60.5547C50.2502 60.1517 50.7626 59.8772 51.3203 59.7661C51.8781 59.6549 52.4562 59.7119 52.9816 59.93C53.507 60.1481 53.9561 60.5175 54.272 60.9913C54.588 61.4652 54.7566 62.0223 54.7566 62.5922C54.7566 63.3565 54.4537 64.0894 53.9145 64.6298C53.3752 65.1702 52.6439 65.4738 51.8813 65.4738C52.5113 65.4713 53.1356 65.5937 53.7182 65.8342C54.3008 66.0746 54.8301 66.4283 55.2756 66.8748C55.7211 67.3212 56.074 67.8517 56.3139 68.4355C56.5538 69.0193 56.6761 69.645 56.6735 70.2764V71.6787C56.3907 71.87 56.0962 72.0432 55.7918 72.1974C54.5806 72.8272 53.2362 73.156 51.8717 73.156C50.5072 73.156 49.1628 72.8272 47.9516 72.1974C47.6449 72.0437 47.3766 71.8516 47.089 71.6787V70.2764ZM66.8714 33.2773C64.2844 35.4659 61.008 36.6664 57.6224 36.6664C54.2368 36.6664 50.9604 35.4659 48.3733 33.2773L47.6066 32.5665C48.0738 31.0508 48.8769 29.6605 49.9557 28.4995C51.0345 27.3385 52.3611 26.4369 53.8365 25.8621C52.9351 25.2503 52.1977 24.4256 51.6896 23.4608C51.1814 22.4959 50.9181 21.4205 50.9228 20.3295C50.9228 18.5463 51.6297 16.8361 52.8879 15.5752C54.1461 14.3142 55.8526 13.6059 57.632 13.6059C59.4114 13.6059 61.1179 14.3142 62.3761 15.5752C63.6343 16.8361 64.3411 18.5463 64.3411 20.3295C64.3427 21.4172 64.0779 22.4888 63.5699 23.45C63.0619 24.4113 62.3262 25.2329 61.4274 25.8428C62.8008 26.3712 64.0482 27.1827 65.0887 28.2249C66.2832 29.4272 67.1652 30.9048 67.6574 32.528C67.4095 32.7922 67.1471 33.0423 66.8714 33.2773Z" fill="black"/>
</svg>
