<svg width="80" height="80" viewBox="0 0 80 80" fill="none" xmlns="http://www.w3.org/2000/svg">
<path d="M40 80C62.0914 80 80 62.0914 80 40C80 17.9086 62.0914 0 40 0C17.9086 0 0 17.9086 0 40C0 62.0914 17.9086 80 40 80Z" fill="white"/>
<path d="M66.05 25.75H57.79C59.265 24.275 60.15 22.21 60.15 19.85C60.15 14.835 56.315 11 51.3 11C48.35 11 43.04 13.655 39.5 17.195C35.96 13.655 30.65 11 27.7 11C22.685 11 18.85 14.835 18.85 19.85C18.85 22.21 19.735 24.275 21.21 25.75H12.95C11.18 25.75 10 26.93 10 28.7V36.96C10 37.255 10.295 37.55 10.59 37.55H35.37C35.96 37.55 36.55 36.96 36.55 36.37V26.93C36.55 26.34 37.14 25.75 37.73 25.75H41.27C41.86 25.75 42.45 26.34 42.45 26.93V36.37C42.45 36.96 43.04 37.55 43.63 37.55H68.41C68.705 37.55 69 37.255 69 36.96V28.7C69 26.93 67.82 25.75 66.05 25.75ZM27.7 22.8C25.93 22.8 24.75 21.62 24.75 19.85C24.75 18.08 25.93 16.9 27.7 16.9C29.47 16.9 34.78 20.44 36.255 22.21C35.37 22.505 27.7 22.8 27.7 22.8ZM51.3 22.8C51.3 22.8 43.63 22.505 42.745 22.21C44.515 20.145 49.53 16.9 51.3 16.9C53.07 16.9 54.25 18.08 54.25 19.85C54.25 21.62 53.07 22.8 51.3 22.8Z" fill="black"/>
<path d="M35.37 43.45H13.54C13.245 43.45 12.95 43.745 12.95 44.04V67.05C12.95 68.82 14.13 70 15.9 70H35.37C35.96 70 36.55 69.41 36.55 68.82V44.63C36.55 44.04 35.96 43.45 35.37 43.45Z" fill="black"/>
<path d="M65.46 43.45H43.63C43.04 43.45 42.45 44.04 42.45 44.63V68.82C42.45 69.41 43.04 70 43.63 70H63.1C64.87 70 66.05 68.82 66.05 67.05V44.04C66.05 43.745 65.755 43.45 65.46 43.45Z" fill="black"/>
</svg>
