<svg width="101" height="80" viewBox="0 0 101 80" fill="none" xmlns="http://www.w3.org/2000/svg">
<path d="M50 80C72.0914 80 90 62.0914 90 40C90 17.9086 72.0914 0 50 0C27.9086 0 10 17.9086 10 40C10 62.0914 27.9086 80 50 80Z" fill="white"/>
<path d="M98.4546 61.6363H97.4546V22.8181H98.4546C99.8182 22.8181 101 21.7272 101 20.2727C101 18.9091 99.9091 17.7272 98.4546 17.7272H35.4545C34.0909 17.7272 32.9091 18.8181 32.9091 20.2727C32.9091 21.6363 34 22.8181 35.4545 22.8181H36.4545V34.5454C37.6363 34.7272 38.3636 34.8181 38.3636 34.8181L38.9091 34.909L40.1818 35V22.8181H93.6364V61.6363H40.2727V51.6363L38.1818 51.7272C38.0909 51.7272 37.9091 51.7272 36.4545 51.6363V61.7272H35.4545C34.0909 61.7272 32.9091 62.8181 32.9091 64.2727C32.9091 65.6363 34 66.8181 35.4545 66.8181H98.3636C99.7273 66.8181 100.909 65.7272 100.909 64.2727C100.909 62.8181 99.8182 61.6363 98.4546 61.6363Z" fill="black"/>
<path d="M26.2727 48.0909L26.3636 72H0V62.9091C0 58.6364 0 48.1818 0.0909086 44.5455C0.0909086 44.1818 0.181818 43.3636 0.272727 42.5455L0.272731 42.5454C0.363639 41.9091 0.454546 41.2727 0.454546 41.0909C0.454546 40.0909 1.18182 39.4545 2.09091 39.0909C3.36364 38.6364 4.72728 38.2727 6 37.8182C6.09091 37.7273 6.27273 37.7273 6.45455 37.6364L7 37.4545C7.90909 37.0909 8.36364 37 8.63637 37H8.81818C9 37.0909 9.18182 37.1818 9.27273 37.2727C9.45455 37.4545 9.54546 37.6364 9.63637 37.9091C9.72728 37.9091 10 38.9091 10.5455 40.6364C11.0909 42.4545 11.8182 44.7273 12.2727 46.0909L12.4546 44.6364C12.6364 43.7273 12.7273 42.8182 12.8182 42.0909V41.9091L12.7273 41.3636C12.8182 41.1818 12.8182 41 12.8182 40.9091V40.8182C12.8182 40.6364 12.7273 40.5455 12.6364 40.3636C12.5455 40.1818 12.4546 40 12.4546 39.9091L12.3636 39.8182C12.2727 39.6364 12.1818 39.4545 12.1818 39.1818C12.1818 39.0909 12.1818 39 12.4546 38.5455C12.5455 38.1818 12.6364 38.0909 12.6364 38.0909C12.6364 38 12.8182 37.9091 13 37.8182H13.1818H13.3636H14.2727H14.5455H15.7273H15.9091H16C16.1818 37.9091 16.3636 38 16.4546 38.1818C16.5455 38.2727 16.8182 39 16.8182 39.1818C16.8182 39.4545 16.7273 39.6364 16.6364 39.8182L16.5455 39.9091C16.4546 40 16.4546 40.1818 16.3636 40.2727C16.2727 40.5455 16.1818 40.7273 16.0909 40.9091C16.1818 41 16.1818 41.0909 16.1818 41.3636L16.2727 41.9091V42.0909V42.1818C16.2727 42.4545 16.2727 42.7273 16.3636 43.0909L16.4546 43.5455V43.7273L17 46.1818C17.4546 44.9091 18 43 18.5455 41.2727C18.5455 41.0909 18.6364 40.8182 18.7273 40.6364C19.1818 39.0909 19.5455 38 19.5455 37.9091C19.5455 37.8182 19.6364 37.7273 19.6364 37.6364C19.8182 37.2727 20 37.0909 20.3636 37H20.5455H20.8182C22.0909 37.1818 37.5455 39.3636 37.5455 39.3636L37.9091 39.4545H38.5455L40 39.5455L48.9091 39.9091C50.7273 40 52.1818 41.5455 52.1818 43.3636C52.1818 45.2727 50.7273 46.7273 48.9091 46.8182L40 47.8182L37.8182 47.9091C37.3637 47.9091 26.2727 47.1818 26.2727 47.1818V48.0909Z" fill="black"/>
<path d="M6.81818 24.3636C6.81818 24.6364 6.90909 24.9091 6.90909 25.0909C6.90909 25.1818 6.90909 25.3636 7 25.4545C7.09091 26.5454 7.63637 27.4545 8.54546 27.9091C8.54546 27.9091 8.54546 27.9091 8.54546 28C9.09091 30 10.0909 31.5454 11.6364 32.5454C11.8182 32.6364 12 32.8182 12.2727 32.9091C12.5455 33.0909 12.9091 33.1818 13.2727 33.3636C13.2727 33.3636 13.2727 33.3636 13.3636 33.3636C13.6364 33.4545 13.9091 33.5454 14.2727 33.6364C14.5455 33.7273 14.8182 33.7273 15.0909 33.7273H15.1818C15.4546 33.7273 15.7273 33.7273 15.9091 33.6364C16.1818 33.5454 16.4546 33.4545 16.7273 33.3636H16.8182C17.1818 33.2727 17.5455 33.0909 17.8182 32.9091C18 32.8182 18.2727 32.6364 18.4546 32.5454C19.2727 32 20 31.2727 20.5455 30.3636C20.8182 30 21 29.5454 21.1818 29C21.2727 28.8182 21.2727 28.6364 21.3636 28.4545C21.4546 28.2727 21.4546 28.0909 21.5455 27.9091C21.6364 27.8182 21.8182 27.6364 22 27.5454C22.0909 27.4545 22.1818 27.3636 22.2727 27.3636C22.9091 26.7273 23.0909 26 23.1818 25.4545C23.1818 25.3636 23.1818 25.1818 23.2727 25.0909C23.2727 24.8182 23.3636 24.6364 23.3636 24.3636C23.3636 24.1818 23.3636 24 23.3636 23.8182C23.3636 23.1818 23 22.3636 22.2727 22.0909C22.2727 22.0909 22.2727 22.0909 22.2727 22C22.2727 21.9091 22.2727 21.8182 22.2727 21.7273C22.2727 21.4545 22.3636 21.2727 22.3636 21C22.5455 20.3636 22.6364 19.6364 22.6364 19C22.7273 16.7273 21.5455 14.9091 19.5455 14C19.3636 13.9091 19.0909 13.8182 18.9091 13.7273C17.7273 13.2727 16.4546 13.0909 15.0909 13C14.8182 13 14.5455 13 14.2727 13C13.4546 13.0909 12.3636 13.0909 11.4546 13.5455C11.3636 13.6364 11.2727 13.6364 11.1818 13.7273C10.8182 14 10.5455 14.2727 10.2727 14.6364C10.2727 14.7273 10.1818 14.7273 10.1818 14.8182C10.0909 15 10 15.0909 9.90909 15.1818C9.72728 15.3636 9.54546 15.4545 9.27273 15.5455C8.90909 15.7273 8.54546 16 8.36364 16.3636C8.09091 16.9091 7.90909 17.5455 7.90909 18.2727C7.90909 19.0909 7.90909 19.8182 8 20.4545C8 20.7273 8.09091 21 8.09091 21.2727V21.3636C8.09091 21.5455 8.18182 21.7273 8.18182 21.9091C8.18182 21.9091 8.18182 21.9091 8.09091 21.9091C7.36364 22.0909 6.90909 22.9091 7 23.6364C6.81818 24 6.81818 24.1818 6.81818 24.3636Z" fill="black"/>
</svg>
