<svg width="80" height="80" viewBox="0 0 80 80" fill="none" xmlns="http://www.w3.org/2000/svg">
<path d="M40 80C62.0914 80 80 62.0914 80 40C80 17.9086 62.0914 0 40 0C17.9086 0 0 17.9086 0 40C0 62.0914 17.9086 80 40 80Z" fill="white"/>
<path d="M35.2351 58.32L47.2875 44.4515L63.8803 64.6764C64.8709 65.9147 66.9346 64.9241 66.5219 63.3556L63.7977 52.8717L68.6682 46.8455C69.2461 46.1025 69.3286 45.1119 68.6682 44.3689C67.9253 43.4609 66.5219 43.5434 65.8615 44.4515L62.642 48.4965L61.6514 44.6166L65.2011 40.1589C65.7789 39.4159 65.8615 38.4253 65.2011 37.6823C64.4581 36.7743 63.0547 36.8568 62.3943 37.7649L60.4131 40.1589L58.2668 31.9038L67.1823 21.6675C68.4206 20.099 70.1541 16.7144 69.989 14.8157C69.6588 12.9996 68.7508 11.2661 67.1823 10.0278C64.0454 7.55127 58.2668 9.44994 55.7903 12.5869L47.7003 23.4836L39.1976 23.1534L41.0962 20.842C41.6741 20.099 41.7566 19.1084 41.0962 18.3654C40.3533 17.4574 38.9499 17.5399 38.2895 18.448L34.6573 22.9883L30.6123 22.8232L33.7492 18.8607C34.3271 18.1178 34.4096 17.1272 33.7492 16.3842C33.0062 15.4762 31.6029 15.5587 30.9425 16.4668L25.9894 22.5755L15.1753 22.0802C13.5242 21.9977 12.9464 24.2265 14.4323 24.9695L37.7116 36.8568L26.8149 51.5509L10.9652 57.6596C9.56181 58.2375 9.72691 60.2187 11.2128 60.5489L24.1733 63.4382L29.7868 75.4906C30.4472 76.8114 32.4284 76.5638 32.676 75.0779L35.2351 58.32Z" fill="black"/>
</svg>
