<svg width="80" height="80" viewBox="0 0 80 80" fill="none" xmlns="http://www.w3.org/2000/svg">
<path d="M40 80C62.0914 80 80 62.0914 80 40C80 17.9086 62.0914 0 40 0C17.9086 0 0 17.9086 0 40C0 62.0914 17.9086 80 40 80Z" fill="white"/>
<path d="M70.36 66.37H60.8084C60.9778 66.0325 61.1047 65.6693 61.16 65.28L64.28 42.88C64.42 41.85 64.11 40.81 63.43 40.02C62.75 39.24 61.76 38.79 60.72 38.79H18.63C17.59 38.79 16.6 39.24 15.92 40.02C15.24 40.81 14.93 41.85 15.07 42.88L18.19 65.28C18.2453 65.6693 18.3721 66.0325 18.5416 66.37H9C8.44 66.37 8 66.82 8 67.37V71.35C8 71.9 8.44 72.35 9 72.35H70.36C70.91 72.35 71.36 71.9 71.36 71.35V67.37C71.36 66.82 70.91 66.37 70.36 66.37ZM39.68 57.79C36.73 57.79 34.33 55.9 34.33 53.58C34.33 51.26 36.73 49.37 39.68 49.37C42.62 49.37 45.02 51.26 45.02 53.58C45.02 55.9 42.62 57.79 39.68 57.79Z" fill="black"/>
<path d="M48.9 30.71C48.56 30.59 48.17 30.67 47.9 30.92C45.65 32.99 42.73 34.13 39.68 34.13C36.63 34.13 33.71 32.99 31.45 30.92C31.18 30.67 30.8 30.59 30.45 30.71C26.71 32 23.27 34.07 20.36 36.79H58.99C56.09 34.07 52.65 32 48.9 30.71Z" fill="black"/>
<path d="M39.68 30.48C46.1638 30.48 51.42 25.2238 51.42 18.74C51.42 12.2562 46.1638 7 39.68 7C33.1962 7 27.94 12.2562 27.94 18.74C27.94 25.2238 33.1962 30.48 39.68 30.48Z" fill="black"/>
</svg>
