<svg width="80" height="80" viewBox="0 0 80 80" fill="none" xmlns="http://www.w3.org/2000/svg">
<path d="M40 80C62.0914 80 80 62.0914 80 40C80 17.9086 62.0914 0 40 0C17.9086 0 0 17.9086 0 40C0 62.0914 17.9086 80 40 80Z" fill="#FBEAE2"/>
<path d="M30.963 59.563H40.84C41.533 59.563 42.226 59.301 42.746 58.865C40.147 56.681 38.414 53.362 38.414 49.607C38.414 44.454 41.62 40.0873 46.125 38.3406C45.865 37.3799 44.999 36.6812 43.959 36.6812C42.746 36.6812 41.7069 37.7293 41.7069 38.952V38.6026C41.7069 37.2926 40.667 36.3319 39.454 36.3319C38.241 36.3319 37.114 37.3799 37.114 38.6026V38.2533C37.114 36.9432 36.075 35.9825 34.862 35.9825C33.649 35.9825 32.609 37.0306 32.609 38.2533V27.7729C32.609 27.1616 32.349 26.5502 31.916 26.1135C31.483 25.6769 30.963 25.4149 30.27 25.4149C28.97 25.4149 28.017 26.4629 28.017 27.6856V43.668L25.331 38.5153C24.638 37.1179 22.905 36.5939 21.519 37.3799C20.132 38.0786 19.613 39.8253 20.306 41.223C25.418 49.52 26.891 51.878 27.324 52.489C27.324 52.489 27.324 52.576 27.41 52.576V52.664C27.757 53.275 28.017 54.061 28.017 54.76V56.419C27.844 58.166 29.23 59.563 30.963 59.563Z" fill="#FF5C00"/>
<path d="M36.595 26.4629C36.595 22.8821 33.735 20 30.183 20C26.631 20 23.771 22.8821 23.771 26.4629C23.771 28.3843 24.638 30.2183 26.111 31.441V27.7729C26.111 25.5022 27.93 23.7555 30.096 23.7555C31.223 23.7555 32.176 24.1921 32.956 24.9782C33.735 25.6769 34.169 26.7249 34.169 27.8603V31.5284C35.642 30.3057 36.595 28.4716 36.595 26.4629Z" fill="#FF5C00"/>
<path d="M50.37 39.3886C44.739 39.3886 40.146 44.017 40.146 49.694C40.146 55.371 44.739 60 50.37 60C56.002 60 60.594 55.371 60.594 49.694C60.594 44.017 56.002 39.3886 50.37 39.3886ZM54.703 48.035L50.197 52.576C50.024 52.751 49.851 52.838 49.591 52.838C49.331 52.838 49.157 52.751 48.984 52.576L46.125 49.694C45.778 49.345 45.778 48.821 46.125 48.472C46.471 48.122 46.991 48.122 47.338 48.472L49.591 50.742L53.49 46.812C53.836 46.463 54.356 46.463 54.703 46.812C55.049 47.162 54.962 47.686 54.703 48.035Z" fill="#FF5C00"/>
<path d="M52.797 37.9039V26.4629C52.797 26.0262 52.451 25.5895 51.931 25.5895H38.241C38.241 25.8515 38.328 26.2009 38.328 26.4629C38.328 26.7249 38.328 27.0742 38.241 27.3362H51.064V37.6419C51.671 37.6419 52.277 37.7292 52.797 37.9039Z" fill="#FF5C00"/>
</svg>
