<svg width="80" height="80" viewBox="0 0 80 80" fill="none" xmlns="http://www.w3.org/2000/svg">
<path d="M40 80C62.0914 80 80 62.0914 80 40C80 17.9086 62.0914 0 40 0C17.9086 0 0 17.9086 0 40C0 62.0914 17.9086 80 40 80Z" fill="#FBEAE2"/>
<path d="M59.003 25.1288L23.419 25.1251C22.74 25.1251 22.19 24.6034 22.19 23.9594C22.19 23.3163 22.74 22.7946 23.419 22.7946L54.359 22.7899C55.171 22.7899 55.829 22.1654 55.829 21.395C55.829 20.6245 55.171 20 54.359 20H22.432C20.54 20 19 21.4605 19 23.2549V52.607C19 53.536 19.794 54.29 20.775 54.29H24.546C26.847 57.719 30.885 60 35.477 60C40.069 60 44.107 57.719 46.407 54.291H59.003C59.984 54.291 60.778 53.537 60.778 52.608V26.8125C60.778 25.8825 59.984 25.1288 59.003 25.1288ZM35.477 57.675C29.688 57.675 24.979 53.209 24.979 47.719C24.979 47.305 25.007 46.889 25.06 46.48C25.709 41.51 30.188 37.7616 35.477 37.7616C36.832 37.7616 38.149 38.0024 39.393 38.4767C43.391 40.0019 45.975 43.63 45.975 47.719C45.975 53.208 41.265 57.675 35.477 57.675ZM58.063 36.5028H48.451C46.633 36.5028 45.16 35.106 45.16 33.3823C45.16 31.6581 46.633 30.2609 48.451 30.2609H58.063V36.5028ZM47.365 33.3823C47.365 34.1207 47.996 34.7201 48.776 34.7201C49.555 34.7201 50.186 34.1207 50.186 33.3823C50.186 32.643 49.555 32.0445 48.776 32.0445C47.996 32.0445 47.365 32.643 47.365 33.3823ZM40.233 47.626C40.639 47.626 40.968 47.314 40.968 46.929C40.968 46.544 40.639 46.231 40.233 46.231H39.072V43.391C39.072 43.006 38.742 42.693 38.336 42.693C37.93 42.693 37.601 43.006 37.601 43.391V46.231H35.344L33.196 43.017C33.022 42.755 32.686 42.635 32.37 42.721C32.056 42.807 31.84 43.08 31.84 43.39V46.231H30.679C30.273 46.231 29.944 46.543 29.944 46.928C29.944 47.313 30.273 47.626 30.679 47.626H31.84V47.935H30.679C30.273 47.935 29.944 48.248 29.944 48.633C29.944 49.018 30.273 49.33 30.679 49.33H31.84V52.264C31.84 52.649 32.169 52.961 32.575 52.961C32.981 52.961 33.311 52.649 33.311 52.264V49.33H35.673L37.715 52.385C37.889 52.647 38.226 52.767 38.541 52.682C38.855 52.595 39.071 52.322 39.071 52.012V49.33H40.233C40.638 49.33 40.968 49.018 40.968 48.633C40.968 48.248 40.638 47.935 40.233 47.935H39.071V47.626H40.233ZM33.311 45.794L33.603 46.231H33.311V45.794ZM33.311 47.936V47.626H34.535L34.743 47.936H33.311ZM37.601 49.609L37.415 49.331H37.601V49.609ZM37.601 47.936H36.483L36.276 47.626H37.601V47.936Z" fill="#FF5C00"/>
</svg>
