<svg width="80" height="80" viewBox="0 0 80 80" fill="none" xmlns="http://www.w3.org/2000/svg">
<path d="M40 80C62.0914 80 80 62.0914 80 40C80 17.9086 62.0914 0 40 0C17.9086 0 0 17.9086 0 40C0 62.0914 17.9086 80 40 80Z" fill="#FBEAE2"/>
<path d="M67.53 50.419H66.953V30.131H67.53C68.317 30.131 69 29.561 69 28.801C69 28.088 68.37 27.471 67.53 27.471H31.155C30.368 27.471 29.686 28.041 29.686 28.801C29.686 29.514 30.315 30.131 31.155 30.131H31.733V36.26C32.415 36.355 32.835 36.403 32.835 36.403L33.15 36.45L33.885 36.498V30.131H64.748V50.419H33.937V45.192L32.73 45.24C32.677 45.24 32.572 45.24 31.733 45.192V50.466H31.155C30.368 50.466 29.686 51.036 29.686 51.796C29.686 52.509 30.315 53.127 31.155 53.127H67.477C68.265 53.127 68.947 52.557 68.947 51.796C68.947 51.036 68.317 50.419 67.53 50.419Z" fill="#FF5C00"/>
<path d="M14.622 30.939C14.622 31.081 14.675 31.224 14.675 31.319C14.675 31.367 14.675 31.462 14.727 31.509C14.78 32.079 15.094 32.554 15.619 32.792C15.619 32.792 15.619 32.792 15.619 32.839C15.934 33.885 16.512 34.692 17.404 35.215C17.509 35.262 17.614 35.357 17.771 35.405C17.929 35.5 18.139 35.548 18.349 35.643C18.349 35.643 18.349 35.643 18.401 35.643C18.559 35.69 18.716 35.738 18.926 35.785C19.084 35.833 19.241 35.833 19.399 35.833H19.451C19.608 35.833 19.766 35.833 19.871 35.785C20.028 35.738 20.186 35.69 20.343 35.643H20.396C20.606 35.595 20.816 35.5 20.973 35.405C21.078 35.357 21.236 35.262 21.341 35.215C21.813 34.93 22.233 34.55 22.548 34.075C22.705 33.885 22.81 33.647 22.915 33.362C22.968 33.267 22.968 33.172 23.02 33.077C23.073 32.982 23.073 32.887 23.125 32.792C23.178 32.744 23.283 32.649 23.388 32.602C23.44 32.554 23.493 32.507 23.545 32.507C23.913 32.174 24.018 31.794 24.07 31.509C24.07 31.462 24.07 31.367 24.123 31.319C24.123 31.176 24.175 31.081 24.175 30.939C24.175 30.844 24.175 30.749 24.175 30.654C24.175 30.321 23.965 29.894 23.545 29.751C23.545 29.751 23.545 29.751 23.545 29.704C23.545 29.656 23.545 29.609 23.545 29.561C23.545 29.419 23.598 29.324 23.598 29.181C23.703 28.848 23.755 28.468 23.755 28.136C23.808 26.948 23.125 25.998 21.97 25.523C21.866 25.475 21.708 25.428 21.603 25.38C20.921 25.143 20.186 25.048 19.399 25C19.241 25 19.084 25 18.926 25C18.454 25.048 17.824 25.048 17.299 25.285C17.247 25.333 17.194 25.333 17.142 25.38C16.932 25.523 16.774 25.665 16.617 25.855C16.617 25.903 16.564 25.903 16.564 25.95C16.512 26.045 16.459 26.093 16.407 26.14C16.302 26.235 16.197 26.283 16.039 26.33C15.829 26.425 15.619 26.568 15.514 26.758C15.357 27.043 15.252 27.376 15.252 27.756C15.252 28.183 15.252 28.563 15.304 28.896C15.304 29.038 15.357 29.181 15.357 29.324V29.371C15.357 29.466 15.409 29.561 15.409 29.656C15.409 29.656 15.409 29.656 15.357 29.656C14.937 29.751 14.675 30.179 14.727 30.559C14.622 30.749 14.622 30.844 14.622 30.939Z" fill="#FF5C00"/>
<path d="M26.169 42.674V43.149V53.923H11C11 51.69 11 43.197 11.052 41.296C11.052 41.106 11.105 40.679 11.157 40.251C11.21 39.919 11.262 39.586 11.262 39.491C11.262 38.968 11.682 38.636 12.207 38.446C12.942 38.208 13.729 38.018 14.464 37.781C14.517 37.733 14.622 37.733 14.727 37.685L15.042 37.59C15.567 37.4 15.829 37.353 15.986 37.353H16.091C16.196 37.4 16.301 37.448 16.354 37.495C16.459 37.59 16.511 37.685 16.564 37.828C16.616 37.828 16.774 38.351 17.089 39.253C17.404 40.204 17.824 41.391 18.086 42.104L18.191 41.344C18.296 40.869 18.348 40.394 18.401 40.014V39.919L18.348 39.633C18.401 39.538 18.401 39.443 18.401 39.396V39.348C18.401 39.253 18.348 39.206 18.296 39.111C18.243 39.016 18.191 38.921 18.191 38.873L18.138 38.826C18.086 38.731 18.033 38.636 18.033 38.493C18.033 38.446 18.033 38.398 18.191 38.161C18.243 37.971 18.296 37.923 18.296 37.923C18.296 37.876 18.401 37.828 18.506 37.781H18.611H18.716H19.241H19.398H20.081H20.186H20.238C20.343 37.828 20.448 37.876 20.5 37.971C20.553 38.018 20.71 38.398 20.71 38.493C20.71 38.636 20.658 38.731 20.605 38.826L20.553 38.873C20.5 38.921 20.5 39.016 20.448 39.063C20.395 39.206 20.343 39.301 20.291 39.396H20.29C20.343 39.443 20.343 39.491 20.343 39.633L20.395 39.919V40.014V40.061C20.395 40.204 20.395 40.346 20.448 40.536L20.5 40.774V40.869L20.815 42.152C21.078 41.486 21.393 40.489 21.708 39.586C21.708 39.491 21.76 39.348 21.813 39.253C22.075 38.446 22.285 37.876 22.285 37.828C22.285 37.781 22.338 37.733 22.338 37.685C22.443 37.495 22.548 37.4 22.757 37.353H22.862H23.02C23.755 37.448 32.678 38.588 32.678 38.588L32.888 38.636H33.255L34.095 38.683L39.239 38.873C40.289 38.921 41.129 39.728 41.129 40.679C41.129 41.676 40.289 42.437 39.239 42.484L34.095 43.007L32.835 43.054C32.573 43.054 26.169 42.674 26.169 42.674Z" fill="#FF5C00"/>
</svg>
