<svg width="80" height="80" viewBox="0 0 80 80" fill="none" xmlns="http://www.w3.org/2000/svg">
<path d="M40 80C62.0914 80 80 62.0914 80 40C80 17.9086 62.0914 0 40 0C17.9086 0 0 17.9086 0 40C0 62.0914 17.9086 80 40 80Z" fill="#FBEAE2"/>
<path d="M48.357 28.299L50.183 27.469C50.183 27.801 50.349 28.133 50.349 28.631C50.349 31.618 47.859 34.772 44.871 34.772C41.884 34.772 39.394 31.618 39.394 28.631C39.394 28.299 39.394 27.967 39.56 27.469L41.22 28.299L43.71 29.295C44.041 29.461 44.373 29.461 44.871 29.461C45.203 29.461 45.701 29.461 46.033 29.295L48.357 28.299ZM48.855 34.938C47.859 35.768 46.531 36.266 45.037 36.266H44.539C43.046 36.266 41.718 35.768 40.722 34.938C37.237 35.436 34.581 38.423 34.581 42.075C34.581 44.066 39.228 45.726 44.705 45.726C50.183 45.726 54.83 44.066 54.83 42.075C54.996 38.423 52.34 35.436 48.855 34.938ZM37.402 23.651L37.9 23.817V24.149C37.734 24.149 37.568 24.315 37.568 24.481C37.568 24.647 37.734 24.813 37.9 24.813L37.568 29.129C37.568 29.295 37.568 29.627 37.568 29.793L37.734 30.456C37.734 30.622 37.734 30.622 37.9 30.622C37.9 30.622 37.9 30.622 38.066 30.456L38.232 29.793C38.232 29.627 38.398 29.295 38.232 29.129L38.066 24.979C38.066 24.979 38.232 24.813 38.232 24.647C38.232 24.481 38.066 24.315 37.9 24.315V23.983L39.062 24.481L39.56 24.647V26.805L41.552 27.635L44.041 28.631C44.207 28.797 44.539 28.797 44.871 28.797C45.203 28.797 45.535 28.797 45.701 28.631L48.191 27.635L49.851 26.805V24.647L50.349 24.481L52.008 23.817C52.506 23.651 52.506 23.32 52.008 23.154L45.369 20.332C45.203 20.166 44.871 20.166 44.539 20.166C44.207 20.166 44.207 20 43.876 20L37.237 22.822C36.905 23.154 36.905 23.485 37.402 23.651ZM58.647 45.394C57.983 45.56 49.519 48.05 49.519 48.05C49.685 48.88 50.183 50.207 48.689 51.535C47.693 52.365 46.199 52.697 44.207 52.697C42.216 52.697 40.058 52.365 38.398 52.199C37.9 52.199 36.407 51.867 36.407 51.867C36.407 51.867 37.402 51.369 38.896 51.369C40.722 51.369 42.05 51.369 42.88 51.369C43.71 51.369 45.037 51.535 45.535 51.535C47.859 51.701 48.523 50.041 48.523 49.544C48.523 47.884 47.527 47.22 44.539 47.054C42.548 46.888 40.556 46.722 39.062 46.556C36.241 46.224 34.249 45.394 33.253 45.228C32.589 45.228 30.763 44.896 28.938 46.224C23.627 50.539 14 53.361 14 53.361C15.494 58.174 23.461 60 23.461 60C26.78 57.012 30.598 56.515 33.917 56.515C34.415 56.515 39.892 56.515 44.871 57.012C45.867 57.012 46.697 56.515 46.697 56.515C54.166 51.701 60.473 49.046 60.473 49.046C61.967 48.548 62.465 47.718 62.465 47.22C62.465 46.224 61.967 45.892 61.801 45.892C61.303 45.394 59.809 45.228 58.647 45.394Z" fill="#FF5C00"/>
</svg>
