<svg width="196" height="200" viewBox="0 0 196 200" fill="none" xmlns="http://www.w3.org/2000/svg">
<path d="M165.159 87.7029C173.59 87.7029 180.427 81.061 180.427 72.9048C180.427 64.7485 173.59 58.1066 165.159 58.1066C156.744 58.1066 149.906 64.7485 149.906 72.9048C149.906 81.061 156.744 87.7029 165.159 87.7029Z" fill="#FF650E"/>
<path d="M184.298 95.102H146.036C140.004 95.102 135.108 99.9466 135.108 105.915V122.849H148.226V112.688H151.296V122.849H179.036V112.688H182.106V122.849H195.226V105.915C195.226 99.9466 190.314 95.102 184.298 95.102Z" fill="#FF650E"/>
<path d="M24.2092 14.2262L35.7125 50.5982L31.0384 57.066C29.2759 59.5048 31.0451 62.8922 34.0778 62.8922H89.9633V59.5694H34.0776C33.7756 59.5694 33.6036 59.2389 33.7785 58.9959L38.4347 52.5522C66.3323 52.5522 59.9496 52.5522 89.8759 52.5522L102.733 11.9009C103.122 11.9009 37.7859 11.9009 26.7448 11.9009L19.9282 0H9.32089V3.32284H17.9639L24.2092 14.2262ZM98.1548 15.2238L87.4004 49.2294H80.5371L87.0252 15.2238H98.1548ZM72.6317 15.2238H83.5992L77.1121 49.2294H70.3409L72.6317 15.2238ZM69.2574 15.2238L66.9676 49.2294H59.2388L56.9489 15.2238H69.2574ZM53.5746 15.2238L55.8654 49.2294H49.0942L42.6071 15.2238H53.5746ZM39.1809 15.2238L45.669 49.2294H38.8057L28.0513 15.2238H39.1809Z" fill="#FF650E"/>
<path d="M51.8656 72.6123C51.8656 68.7906 48.9665 65.6669 45.3996 65.6669C41.8327 65.6669 38.9172 68.7906 38.9172 72.6123C38.9172 76.4339 41.8327 79.5402 45.3996 79.5402C48.9665 79.5402 51.8656 76.4339 51.8656 72.6123Z" fill="#FF650E"/>
<path d="M70.3633 72.6123C70.3633 76.4339 73.2625 79.5402 76.8294 79.5402C80.4126 79.5402 83.3118 76.4339 83.3118 72.6123C83.3118 68.7906 80.4126 65.6669 76.8294 65.6669C73.2626 65.6669 70.3633 68.7906 70.3633 72.6123Z" fill="#FF650E"/>
<path d="M105.953 190.803C105.953 191.861 105.794 192.902 105.508 193.864H111.251C112.906 193.864 114.274 192.501 114.274 190.819C114.274 189.136 112.906 187.758 111.251 187.758H105.508C105.794 188.72 105.953 189.745 105.953 190.803Z" fill="#FF650E"/>
<path d="M44.9668 190.803C44.9668 191.861 44.8077 192.902 44.5213 193.864H84.9825C84.6962 192.902 84.5371 191.861 84.5371 190.803C84.5371 189.745 84.6962 188.72 84.9666 187.758H44.5213C44.8236 188.72 44.9668 189.745 44.9668 190.803Z" fill="#FF650E"/>
<path d="M14.0361 190.803C14.0361 192.501 15.4046 193.864 17.0751 193.864H23.9963C23.71 192.902 23.5508 191.861 23.5508 190.803C23.5508 189.745 23.6941 188.72 23.9804 187.758H17.0751C15.4046 187.758 14.0361 189.136 14.0361 190.803Z" fill="#FF650E"/>
<path d="M95.2451 188.329C96.6046 188.329 97.7094 189.441 97.7094 190.81C97.7094 192.178 96.6046 193.291 95.2451 193.291C93.8902 193.291 92.7885 192.178 92.7885 190.81C92.7885 189.441 93.8902 188.329 95.2451 188.329Z" fill="#FF650E"/>
<path d="M95.2392 181.62C100.282 181.62 104.364 185.731 104.364 190.81C104.364 195.889 100.282 200 95.2392 200C90.2166 200 86.1343 195.889 86.1343 190.81C86.1343 185.731 90.2166 181.62 95.2392 181.62ZM95.2451 194.894C97.481 194.894 99.3005 193.062 99.3005 190.81C99.3005 188.558 97.481 186.726 95.2451 186.726C93.0138 186.726 91.1974 188.558 91.1974 190.81C91.1974 193.062 93.0138 194.894 95.2451 194.894Z" fill="#FF650E"/>
<path d="M34.2525 188.329C35.612 188.329 36.7168 189.441 36.7168 190.81C36.7168 192.178 35.612 193.291 34.2525 193.291C32.8976 193.291 31.7959 192.178 31.7959 190.81C31.7959 189.441 32.8976 188.329 34.2525 188.329Z" fill="#FF650E"/>
<path d="M34.2466 181.62C39.2892 181.62 43.3715 185.731 43.3715 190.81C43.3715 195.889 39.2892 200 34.2466 200C29.224 200 25.1418 195.889 25.1418 190.81C25.1418 185.731 29.224 181.62 34.2466 181.62ZM34.2525 194.894C36.4884 194.894 38.3079 193.062 38.3079 190.81C38.3079 188.558 36.4884 186.726 34.2525 186.726C32.0212 186.726 30.2048 188.558 30.2048 190.81C30.2048 193.062 32.0212 194.894 34.2525 194.894Z" fill="#FF650E"/>
<path d="M17.457 164.17L25.6351 149.444C26.3192 148.194 27.6399 147.409 29.056 147.409H49.1991V186.156H43.9167C42.1983 182.534 38.5071 180.018 34.2429 180.018C29.9947 180.018 26.3192 182.534 24.6009 186.156H16.9638V166.093C16.9638 165.42 17.1386 164.763 17.457 164.17ZM39.4142 172.66H44.1968C44.6365 172.66 44.9923 172.301 44.9923 171.858C44.9923 171.416 44.6365 171.057 44.1968 171.057H39.4142C38.9745 171.057 38.6186 171.416 38.6186 171.858C38.6186 172.301 38.9745 172.66 39.4142 172.66ZM44.2031 166.558V153.241H30.154L22.7711 166.558H44.2031ZM18.5549 182.823H21.196C21.9119 182.823 22.4849 182.23 22.4849 181.509V178.977C22.4849 178.256 21.9119 177.679 21.196 177.679H18.5549V182.823V182.823Z" fill="#FF650E"/>
<path d="M54.1156 129.91H58.491C56.3271 133.58 55.0702 137.874 55.0702 142.457C55.0702 156.014 66.0328 167.055 79.4933 167.055C92.9539 167.055 103.901 156.014 103.901 142.457C103.901 137.874 102.644 133.58 100.48 129.91H108.037C109.867 129.91 111.363 131.416 111.363 133.275V186.156H104.903C103.185 182.534 99.4932 180.018 95.2451 180.018C90.9969 180.018 87.3056 182.534 85.5872 186.156H50.7902V133.275C50.7902 131.416 52.2699 129.91 54.1156 129.91Z" fill="#FF650E"/>
<path d="M75.1296 141.651H78.6878V132.192C78.6878 131.749 79.0436 131.39 79.4834 131.39C79.9231 131.39 80.2789 131.749 80.2789 132.192V142.453C80.2789 142.895 79.9231 143.254 79.4834 143.254H75.1296C74.6899 143.254 74.3341 142.895 74.3341 142.453C74.3341 142.01 74.6899 141.651 75.1296 141.651Z" fill="#FF650E"/>
<path d="M95.3802 122.385C95.2451 122.385 95.1083 122.351 94.984 122.279L92.718 120.966L91.5658 122.976C98.0021 127.046 102.304 134.244 102.304 142.453C102.304 155.133 92.0722 165.449 79.4958 165.449C66.9054 165.449 56.6628 155.133 56.6628 142.453C56.6628 134.247 60.9653 127.052 67.4037 122.982L66.252 120.973L63.9983 122.279C63.874 122.351 63.7373 122.385 63.6021 122.385C63.3271 122.385 63.0598 122.241 62.9122 121.983C62.6931 121.6 62.8252 121.11 63.2059 120.889L69.1134 117.467C69.491 117.248 69.9804 117.378 70.1995 117.762C70.4186 118.147 70.2865 118.636 69.9058 118.857L67.6303 120.175L68.7706 122.163C71.7493 120.56 75.1229 119.622 78.7003 119.497V116.921H76.6477C76.208 116.921 75.8522 116.562 75.8522 116.119C75.8522 115.676 76.208 115.318 76.6477 115.318H82.3424C82.7821 115.318 83.1379 115.676 83.1379 116.119C83.1379 116.562 82.7821 116.921 82.3424 116.921H80.2914V119.497C83.8603 119.622 87.2261 120.558 90.1987 122.158L91.3397 120.168L89.0765 118.857C88.6958 118.636 88.5637 118.147 88.7828 117.762C89.0035 117.378 89.4914 117.248 89.8689 117.467L95.7765 120.889C96.1571 121.11 96.2892 121.6 96.0701 121.983C95.9225 122.241 95.6553 122.385 95.3802 122.385ZM64.2242 132.529L65.8116 133.452C66.2435 133.703 66.3911 134.26 66.141 134.695C65.8993 135.119 65.354 135.285 64.9073 135.028L63.3198 134.105C62.1697 136.356 61.4788 138.874 61.3477 141.543H63.1748C63.6736 141.543 64.0775 141.95 64.0775 142.453C64.0775 142.955 63.6735 143.363 63.1748 143.363H61.3477C61.4787 146.031 62.1697 148.549 63.3196 150.8L64.9073 149.876C65.3423 149.625 65.8939 149.775 66.141 150.21C66.3911 150.645 66.2435 151.201 65.8116 151.452L64.2239 152.376C65.6243 154.554 67.4671 156.412 69.6288 157.824L70.5475 156.221C70.7946 155.787 71.3446 155.636 71.7812 155.888C72.2132 156.139 72.3608 156.695 72.1106 157.13L71.1909 158.735C73.4265 159.897 75.9291 160.594 78.5806 160.728V158.877C78.5806 158.374 78.9846 157.967 79.4834 157.967C79.9821 157.967 80.3861 158.374 80.3861 158.877V160.729C83.0382 160.598 85.5412 159.901 87.7775 158.74L86.8546 157.131C86.6044 156.696 86.752 156.14 87.184 155.888C87.6206 155.636 88.1706 155.787 88.4177 156.22L89.3402 157.829C91.5018 156.416 93.3449 154.557 94.7452 152.377L93.1536 151.452C92.7217 151.201 92.574 150.645 92.8242 150.21C93.0713 149.775 93.6228 149.623 94.0579 149.876L95.6488 150.801C96.7978 148.55 97.488 146.031 97.619 143.363H95.7904C95.2916 143.363 94.8876 142.955 94.8876 142.453C94.8876 141.95 95.2916 141.543 95.7904 141.543H97.619C97.488 138.873 96.7977 136.354 95.6486 134.103L94.0579 135.028C93.6189 135.283 93.0685 135.123 92.8242 134.695C92.574 134.26 92.7217 133.703 93.1536 133.452L94.7449 132.527C93.3447 130.347 91.5017 128.489 89.3401 127.076L88.4177 128.684C88.1752 129.108 87.6294 129.272 87.1839 129.016C86.752 128.764 86.6044 128.208 86.8545 127.773L87.7774 126.165C85.5411 125.004 83.0382 124.307 80.3861 124.176V126.028C80.3861 126.531 79.9821 126.938 79.4834 126.938C78.9846 126.938 78.5806 126.531 78.5806 126.028V124.177C75.9291 124.311 73.4267 125.008 71.1911 126.17L72.1106 127.774C72.3608 128.209 72.2132 128.765 71.7812 129.016C71.3344 129.273 70.7891 129.107 70.5475 128.683L69.629 127.081C67.4674 128.493 65.6246 130.351 64.2242 132.529Z" fill="#FF650E"/>
<path d="M4.73634 101.269L0.169807 101.564C0.32172 103.905 0.569722 106.263 0.910381 108.574L5.43688 107.908C5.11521 105.721 4.87933 103.486 4.73634 101.269Z" fill="#FF650E"/>
<path d="M20.5938 144.543C19.2744 142.764 18.0122 140.906 16.8415 139.025L12.9563 141.44C14.1917 143.428 15.5246 145.389 16.9186 147.269L20.5938 144.543Z" fill="#FF650E"/>
<path d="M4.95089 87.925L0.397627 87.4805C0.170902 89.7997 0.0379782 92.1667 0 94.5172L4.57568 94.5909C4.61137 92.3632 4.73743 90.12 4.95089 87.925Z" fill="#FF650E"/>
<path d="M9.48186 135.309L13.5526 133.218C12.5405 131.25 11.5977 129.212 10.7486 127.162L6.52139 128.914C7.41731 131.078 8.4139 133.229 9.48186 135.309Z" fill="#FF650E"/>
<path d="M8.45079 120.898C7.77611 118.792 7.17944 116.628 6.67794 114.465L2.22054 115.5C2.74995 117.784 3.38002 120.07 4.09383 122.294L8.45079 120.898Z" fill="#FF650E"/>
<path d="M11.802 62.2367L7.63289 60.3488C6.66879 62.4781 5.78065 64.6765 4.99203 66.8861L9.30187 68.4233C10.0482 66.3333 10.8894 64.2509 11.802 62.2367Z" fill="#FF650E"/>
<path d="M18.2813 50.5766L14.4764 48.0364C13.176 49.9835 11.9405 52.0076 10.8044 54.052L14.8036 56.2751C15.8793 54.3391 17.0502 52.421 18.2813 50.5766Z" fill="#FF650E"/>
<path d="M1.36249 80.4985L5.8645 81.3119C6.25893 79.1267 6.74807 76.9339 7.31888 74.7968L2.8974 73.6172C2.29524 75.8759 1.77819 78.1906 1.36249 80.4985Z" fill="#FF650E"/>
<path d="M130.365 164.781L132.834 168.633C134.798 167.374 136.741 166.014 138.607 164.59L135.832 160.952C134.064 162.301 132.225 163.589 130.365 164.781Z" fill="#FF650E"/>
<path d="M118.587 171.039L120.396 175.242C122.545 174.318 124.683 173.291 126.75 172.193L124.603 168.151C122.645 169.192 120.621 170.163 118.587 171.039Z" fill="#FF650E"/>
<path d="M111.973 173.549L113.376 177.904L113.815 177.759L112.347 173.424L111.973 173.549Z" fill="#FF650E"/>
<path d="M150.13 146.992L153.7 149.854C155.165 148.027 156.571 146.117 157.881 144.18L154.089 141.618C152.849 143.453 151.518 145.262 150.13 146.992Z" fill="#FF650E"/>
<path d="M140.972 156.693L144.033 160.093C145.769 158.531 147.466 156.874 149.075 155.17L145.748 152.029C144.223 153.643 142.617 155.213 140.972 156.693Z" fill="#FF650E"/>
<path d="M141.439 29.4993C139.639 28.0023 137.754 26.5624 135.84 25.2185L133.211 28.963C135.024 30.2364 136.809 31.6004 138.515 33.0182L141.439 29.4993Z" fill="#FF650E"/>
<path d="M129.91 21.4065C127.887 20.22 125.794 19.1051 123.689 18.0921L121.705 22.2163C123.698 23.1747 125.68 24.2306 127.596 25.3544L129.91 21.4065Z" fill="#FF650E"/>
<path d="M151.505 39.3484C149.974 37.5822 148.347 35.8563 146.672 34.2175L143.472 37.4884C145.059 39.04 146.599 40.6745 148.049 42.3467L151.505 39.3484Z" fill="#FF650E"/>
</svg>
